name analog
datacolumns 19
datarows 70
range 0.3155 0.35000000000000003
endheader
time	ground_force_vx	ground_force_vy	ground_force_vz	ground_force_px	ground_force_py	ground_force_pz	l_ground_force_vx	l_ground_force_vy	l_ground_force_vz	l_ground_force_px	l_ground_force_py	l_ground_force_pz	ground_torque_x	ground_torque_y	ground_torque_z	l_ground_torque_x	l_ground_torque_y	l_ground_torque_z
0.3155	-0.0	-0.0	-0.0	-0.0	-0.0	-0.0	3.127521276473999	-2.008854389190674	-887.39111328125	-0.0	-0.0	-0.0	-0.0	-0.0	-0.0	234727.359375	-40155.1328125	-1883.845458984375
0.316	-0.0	-0.0	-0.0	-0.0	-0.0	-0.0	5.511307716369629	-2.4953861236572266	-887.302490234375	-0.0	-0.0	-0.0	-0.0	-0.0	-0.0	234420.453125	-40852.4375	-1192.4705810546875
0.3165	-0.0	-0.0	-0.0	-0.0	-0.0	-0.0	8.5162353515625	-2.307404041290283	-888.7435913085938	-0.0	-0.0	-0.0	-0.0	-0.0	-0.0	234819.34375	-41699.9921875	-461.7379455566406
0.317	-0.0	-0.0	-0.0	-0.0	-0.0	-0.0	10.822715759277344	-1.6284892559051514	-889.1793212890625	-0.0	-0.0	-0.0	-0.0	-0.0	-0.0	235516.515625	-42390.46875	149.94395446777344
0.3175	-0.0	-0.0	-0.0	-0.0	-0.0	-0.0	11.649134635925291	-1.0319609642028809	-892.5355224609375	-0.0	-0.0	-0.0	-0.0	-0.0	-0.0	236269.96875	-42893.03515625	361.903076171875
0.318	-0.0	-0.0	-0.0	-0.0	-0.0	-0.0	11.294516563415527	-0.2649650573730469	-893.785888671875	-0.0	-0.0	-0.0	-0.0	-0.0	-0.0	236360.5625	-43275.59375	136.0670928955078
0.3185	-0.0	-0.0	-0.0	-0.0	-0.0	-0.0	10.301107406616213	-0.1978633999824524	-894.7916870117188	-0.0	-0.0	-0.0	-0.0	-0.0	-0.0	236835.578125	-43348.8515625	-230.0364227294922
0.319	-0.0	-0.0	-0.0	-0.0	-0.0	-0.0	9.93560791015625	-0.0104793459177017	-896.0354614257812	-0.0	-0.0	-0.0	-0.0	-0.0	-0.0	237192.953125	-43531.51171875	-576.6646728515625
0.3195	-0.0	-0.0	-0.0	-0.0	-0.0	-0.0	8.850297927856445	-0.0986664071679115	-898.3262329101562	-0.0	-0.0	-0.0	-0.0	-0.0	-0.0	237997.421875	-43351.3125	-820.8494262695312
0.32	-0.0	-0.0	-0.0	-0.0	-0.0	-0.0	7.4228129386901855	1.187211275100708	-900.8111572265624	-0.0	-0.0	-0.0	-0.0	-0.0	-0.0	238545.34375	-43048.0859375	-1395.523193359375
0.3205	-0.0	-0.0	-0.0	-0.0	-0.0	-0.0	5.588779449462891	2.2963638305664062	-899.0654296875	-0.0	-0.0	-0.0	-0.0	-0.0	-0.0	238459.9375	-43189.0234375	-2058.791259765625
0.321	-0.0	-0.0	-0.0	-0.0	-0.0	-0.0	5.243978023529053	2.757139205932617	-899.6846923828125	-0.0	-0.0	-0.0	-0.0	-0.0	-0.0	238735.84375	-43498.6796875	-2349.102783203125
0.3215	-0.0	-0.0	-0.0	-0.0	-0.0	-0.0	5.687448978424072	2.600532054901123	-900.6953735351562	-0.0	-0.0	-0.0	-0.0	-0.0	-0.0	238935.90625	-43751.6171875	-2216.767333984375
0.322	-0.0	-0.0	-0.0	-0.0	-0.0	-0.0	6.712377548217773	2.5808608531951904	-898.7548828125	-0.0	-0.0	-0.0	-0.0	-0.0	-0.0	238554.359375	-44199.59765625	-1731.62890625
0.3225	-0.0	-0.0	-0.0	-0.0	-0.0	-0.0	7.530100345611572	1.4034641981124878	-894.3710327148438	-0.0	-0.0	-0.0	-0.0	-0.0	-0.0	237163.9375	-44259.02734375	-1606.10009765625
0.323	-0.0	-0.0	-0.0	-0.0	-0.0	-0.0	7.687873363494873	0.4332350492477417	-887.156494140625	-0.0	-0.0	-0.0	-0.0	-0.0	-0.0	235313.125	-43831.65625	-1470.8125
0.3235	-0.0	-0.0	-0.0	-0.0	-0.0	-0.0	7.332827568054199	-1.1970512866973877	-880.4044189453125	-0.0	-0.0	-0.0	-0.0	-0.0	-0.0	233190.65625	-43427.05859375	-1399.386474609375
0.324	-0.0	-0.0	-0.0	-0.0	-0.0	-0.0	6.072000980377197	-2.2475357055664062	-874.4686279296875	-0.0	-0.0	-0.0	-0.0	-0.0	-0.0	231307.609375	-43083.59375	-1443.5201416015625
0.3245	-0.0	-0.0	-0.0	-0.0	-0.0	-0.0	5.971299648284912	-2.326746940612793	-866.4379272460938	-0.0	-0.0	-0.0	-0.0	-0.0	-0.0	229744.640625	-42535.34765625	-1479.546142578125
0.325	-0.0	-0.0	-0.0	-0.0	-0.0	-0.0	7.136663436889648	-2.1865553855896	-861.4419555664062	-0.0	-0.0	-0.0	-0.0	-0.0	-0.0	228001.0	-42317.671875	-1106.358154296875
0.3255	-0.0	-0.0	-0.0	-0.0	-0.0	-0.0	8.94173526763916	-2.20804214477539	-857.3950805664062	-0.0	-0.0	-0.0	-0.0	-0.0	-0.0	226672.21875	-41759.42578125	-703.1199340820312
0.326	-0.0	-0.0	-0.0	-0.0	-0.0	-0.0	10.44571018218994	-1.5279829502105713	-853.483642578125	-0.0	-0.0	-0.0	-0.0	-0.0	-0.0	225724.140625	-40819.109375	-55.25559997558594
0.3265	-0.0	-0.0	-0.0	-0.0	-0.0	-0.0	11.749781608581545	-1.2762866020202637	-850.2880249023438	-0.0	-0.0	-0.0	-0.0	-0.0	-0.0	224724.421875	-40515.20703125	199.37814331054688
0.327	-0.0	-0.0	-0.0	-0.0	-0.0	-0.0	12.31347370147705	-1.091084122657776	-846.0285034179688	-0.0	-0.0	-0.0	-0.0	-0.0	-0.0	223625.296875	-40121.33203125	407.4963989257813
0.3275	-0.0	-0.0	-0.0	-0.0	-0.0	-0.0	12.605459213256836	-1.982992887496948	-843.7752685546875	-0.0	-0.0	-0.0	-0.0	-0.0	-0.0	223283.40625	-40010.015625	548.1171875
0.328	-0.0	-0.0	-0.0	-0.0	-0.0	-0.0	12.38782024383545	-2.03980565071106	-843.4588012695312	-0.0	-0.0	-0.0	-0.0	-0.0	-0.0	223075.734375	-40027.69921875	610.043701171875
0.3285	-0.0	-0.0	-0.0	-0.0	-0.0	-0.0	13.313650131225586	-1.661596655845642	-842.5958251953125	-0.0	-0.0	-0.0	-0.0	-0.0	-0.0	222917.203125	-40272.97265625	809.9757690429688
0.329	-0.0	-0.0	-0.0	-0.0	-0.0	-0.0	14.782611846923828	-1.4933271408081057	-841.9308471679688	-0.0	-0.0	-0.0	-0.0	-0.0	-0.0	223039.3125	-40223.5625	1334.2855224609375
0.3295	-0.0	-0.0	-0.0	-0.0	-0.0	-0.0	15.742116928100586	-1.9350172281265257	-842.185546875	-0.0	-0.0	-0.0	-0.0	-0.0	-0.0	223249.78125	-40228.5078125	1717.68359375
0.33	-0.0	-0.0	-0.0	-0.0	-0.0	-0.0	15.201981544494627	-1.72622811794281	-842.3126220703125	-0.0	-0.0	-0.0	-0.0	-0.0	-0.0	223034.359375	-39867.0	1819.8795166015625
0.3305	-0.0	-0.0	-0.0	-0.0	-0.0	-0.0	14.435158729553224	-1.8950022459030151	-842.6929321289062	-0.0	-0.0	-0.0	-0.0	-0.0	-0.0	223044.015625	-39666.33984375	1759.9632568359375
0.331	-0.0	-0.0	-0.0	-0.0	-0.0	-0.0	12.88809299468994	-1.0272443294525146	-841.8349609375	-0.0	-0.0	-0.0	-0.0	-0.0	-0.0	222665.453125	-39175.66015625	1386.990478515625
0.3315	-0.0	-0.0	-0.0	-0.0	-0.0	-0.0	10.863273620605469	-0.4718582928180694	-841.2359619140625	-0.0	-0.0	-0.0	-0.0	-0.0	-0.0	222700.421875	-38466.83203125	876.3453979492188
0.332	-0.0	-0.0	-0.0	-0.0	-0.0	-0.0	8.782367706298828	-0.2170642018318176	-841.993896484375	-0.0	-0.0	-0.0	-0.0	-0.0	-0.0	222909.609375	-38297.59375	402.8870239257813
0.3325	-0.0	-0.0	-0.0	-0.0	-0.0	-0.0	6.24306583404541	0.1693126261234283	-840.0007934570312	-0.0	-0.0	-0.0	-0.0	-0.0	-0.0	222801.78125	-37718.75	107.0761489868164
0.333	-0.0	-0.0	-0.0	-0.0	-0.0	-0.0	5.459336757659912	0.1694286465644836	-838.5303955078125	-0.0	-0.0	-0.0	-0.0	-0.0	-0.0	222465.25	-37449.640625	-114.73043823242188
0.3335	-0.0	-0.0	-0.0	-0.0	-0.0	-0.0	4.708836078643799	-0.8689509034156799	-837.61474609375	-0.0	-0.0	-0.0	-0.0	-0.0	-0.0	222497.0625	-37343.51171875	-138.0048370361328
0.334	-0.0	-0.0	-0.0	-0.0	-0.0	-0.0	3.8892455101013184	-1.0261749029159546	-841.8045654296875	-0.0	-0.0	-0.0	-0.0	-0.0	-0.0	223331.265625	-37414.45703125	-234.80694580078125
0.3345	-0.0	-0.0	-0.0	-0.0	-0.0	-0.0	4.299006938934326	-0.0338080525398254	-845.566162109375	-0.0	-0.0	-0.0	-0.0	-0.0	-0.0	225183.796875	-37650.3125	-12.942194938659668
0.335	-0.0	-0.0	-0.0	-0.0	-0.0	-0.0	4.838138103485107	2.2148125171661377	-851.6611328125	-0.0	-0.0	-0.0	-0.0	-0.0	-0.0	226805.203125	-37538.38671875	113.51243591308594
0.3355	-0.0	-0.0	-0.0	-0.0	-0.0	-0.0	4.647317886352539	4.830122947692871	-856.3902587890625	-0.0	-0.0	-0.0	-0.0	-0.0	-0.0	228202.671875	-37811.56640625	209.9513702392578
0.336	-0.0	-0.0	-0.0	-0.0	-0.0	-0.0	4.667191505432129	7.126282215118408	-857.652099609375	-0.0	-0.0	-0.0	-0.0	-0.0	-0.0	229264.859375	-37832.6484375	-49.79573822021485
0.3365	-0.0	-0.0	-0.0	-0.0	-0.0	-0.0	4.980670928955078	8.567203521728516	-859.8237915039062	-0.0	-0.0	-0.0	-0.0	-0.0	-0.0	230374.984375	-38178.0703125	-213.53497314453125
0.337	-0.0	-0.0	-0.0	-0.0	-0.0	-0.0	6.127361297607422	10.11597728729248	-860.7960205078125	-0.0	-0.0	-0.0	-0.0	-0.0	-0.0	230712.046875	-38351.47265625	148.91046142578125
0.3375	-0.0	-0.0	-0.0	-0.0	-0.0	-0.0	7.936497688293457	10.793868064880373	-858.0523681640625	-0.0	-0.0	-0.0	-0.0	-0.0	-0.0	230571.328125	-38532.4140625	542.3388061523438
0.338	-0.0	-0.0	-0.0	-0.0	-0.0	-0.0	9.403343200683594	10.557470321655272	-854.0487670898438	-0.0	-0.0	-0.0	-0.0	-0.0	-0.0	229164.625	-38440.109375	816.4025268554688
0.3385	-0.0	-0.0	-0.0	-0.0	-0.0	-0.0	10.734004974365234	9.686079978942873	-845.7845458984375	-0.0	-0.0	-0.0	-0.0	-0.0	-0.0	226953.546875	-38364.74609375	1376.6358642578125
0.339	-0.0	-0.0	-0.0	-0.0	-0.0	-0.0	11.75125217437744	7.81938362121582	-837.5917358398438	-0.0	-0.0	-0.0	-0.0	-0.0	-0.0	224551.25	-37938.328125	1746.668701171875
0.3395	-0.0	-0.0	-0.0	-0.0	-0.0	-0.0	12.957509994506836	6.418931484222412	-828.4690551757812	-0.0	-0.0	-0.0	-0.0	-0.0	-0.0	222443.71875	-37614.05078125	2039.95556640625
0.34	-0.0	-0.0	-0.0	-0.0	-0.0	-0.0	13.897368431091309	5.152750492095947	-821.6727294921875	-0.0	-0.0	-0.0	-0.0	-0.0	-0.0	220198.375	-37183.80859375	2326.877685546875
0.3405	-0.0	-0.0	-0.0	-0.0	-0.0	-0.0	13.79727840423584	3.615711212158203	-816.2947998046875	-0.0	-0.0	-0.0	-0.0	-0.0	-0.0	218276.375	-36776.28515625	2364.422607421875
0.341	-0.0	-0.0	-0.0	-0.0	-0.0	-0.0	12.502835273742676	1.901597023010254	-813.5233154296875	-0.0	-0.0	-0.0	-0.0	-0.0	-0.0	217603.828125	-36328.703125	2040.4613037109373
0.3415	-0.0	-0.0	-0.0	-0.0	-0.0	-0.0	9.539060592651367	0.3427282273769378	-816.9730834960938	-0.0	-0.0	-0.0	-0.0	-0.0	-0.0	218096.484375	-36204.37890625	1324.2613525390625
0.342	-0.0	-0.0	-0.0	-0.0	-0.0	-0.0	6.788951396942139	-0.3014309406280517	-823.8536376953125	-0.0	-0.0	-0.0	-0.0	-0.0	-0.0	220051.28125	-36180.1875	732.3822021484375
0.3425	-0.0	-0.0	-0.0	-0.0	-0.0	-0.0	5.526799201965332	0.2599514126777649	-834.1826782226562	-0.0	-0.0	-0.0	-0.0	-0.0	-0.0	222602.0625	-35980.62890625	197.65489196777344
0.343	-0.0	-0.0	-0.0	-0.0	-0.0	-0.0	4.253196239471436	0.9617391228675842	-844.4135131835938	-0.0	-0.0	-0.0	-0.0	-0.0	-0.0	225669.515625	-35996.84765625	-251.34364318847656
0.3435	-0.0	-0.0	-0.0	-0.0	-0.0	-0.0	2.525855779647827	1.6733299493789673	-856.5067138671875	-0.0	-0.0	-0.0	-0.0	-0.0	-0.0	228703.109375	-35740.22265625	-861.2479858398438
0.34400000000000003	-0.0	-0.0	-0.0	-0.0	-0.0	-0.0	0.4808284938335418	1.9942877292633057	-865.381591796875	-0.0	-0.0	-0.0	-0.0	-0.0	-0.0	231832.796875	-35434.5234375	-1455.846435546875
0.34450000000000003	-0.0	-0.0	-0.0	-0.0	-0.0	-0.0	-1.4751543998718262	2.3427999019622803	-873.2462158203125	-0.0	-0.0	-0.0	-0.0	-0.0	-0.0	234504.59375	-35097.1484375	-2061.340576171875
0.34500000000000003	-0.0	-0.0	-0.0	-0.0	-0.0	-0.0	-3.282299041748047	2.4310638904571533	-881.8262329101562	-0.0	-0.0	-0.0	-0.0	-0.0	-0.0	237004.140625	-34603.45703125	-2538.737060546875
0.34550000000000003	-0.0	-0.0	-0.0	-0.0	-0.0	-0.0	-5.107428073883057	2.035751342773437	-888.310546875	-0.0	-0.0	-0.0	-0.0	-0.0	-0.0	239243.75	-33882.5078125	-3028.847412109375
0.34600000000000003	-0.0	-0.0	-0.0	-0.0	-0.0	-0.0	-7.18979549407959	2.2669148445129395	-893.2794799804688	-0.0	-0.0	-0.0	-0.0	-0.0	-0.0	240507.453125	-32747.119140625	-3520.43212890625
0.34650000000000003	-0.0	-0.0	-0.0	-0.0	-0.0	-0.0	-8.689517974853516	1.943077087402344	-894.6765747070312	-0.0	-0.0	-0.0	-0.0	-0.0	-0.0	241419.28125	-32131.626953125	-4186.93212890625
0.34700000000000003	-0.0	-0.0	-0.0	-0.0	-0.0	-0.0	-9.939614295959473	2.918604612350464	-892.812255859375	-0.0	-0.0	-0.0	-0.0	-0.0	-0.0	241700.265625	-31470.130859375	-4602.91455078125
0.34750000000000003	-0.0	-0.0	-0.0	-0.0	-0.0	-0.0	-9.438017845153809	4.681049346923828	-889.1069946289062	-0.0	-0.0	-0.0	-0.0	-0.0	-0.0	241333.203125	-31243.673828125	-4545.41650390625
0.34800000000000003	-0.0	-0.0	-0.0	-0.0	-0.0	-0.0	-8.292563438415527	6.4935302734375	-886.677978515625	-0.0	-0.0	-0.0	-0.0	-0.0	-0.0	240373.109375	-31246.578125	-4319.732421875
0.34850000000000003	-0.0	-0.0	-0.0	-0.0	-0.0	-0.0	-6.121044158935547	7.602911472320557	-882.8084106445312	-0.0	-0.0	-0.0	-0.0	-0.0	-0.0	239379.46875	-31145.5390625	-3706.7763671875
0.34900000000000003	-0.0	-0.0	-0.0	-0.0	-0.0	-0.0	-4.24754810333252	8.040781021118164	-876.8873291015625	-0.0	-0.0	-0.0	-0.0	-0.0	-0.0	238258.09375	-30929.525390625	-3189.273681640625
0.34950000000000003	-0.0	-0.0	-0.0	-0.0	-0.0	-0.0	-3.367569923400879	8.309088706970215	-873.5367431640625	-0.0	-0.0	-0.0	-0.0	-0.0	-0.0	237126.546875	-30916.46875	-2966.6884765625
0.35000000000000003	-0.0	-0.0	-0.0	-0.0	-0.0	-0.0	-2.8387451171875	8.465779304504395	-868.9995727539062	-0.0	-0.0	-0.0	-0.0	-0.0	-0.0	236454.640625	-30657.654296875	-2776.206787109375
